<svg width="668" height="441" viewBox="0 0 668 441" fill="none" xmlns="http://www.w3.org/2000/svg">
<path d="M400 0.32002H19C15.7183 0.316283 12.4922 1.16757 9.63965 2.79002C8.95639 3.17782 8.29848 3.60867 7.66992 4.08C5.28984 5.84454 3.35631 8.14221 2.02435 10.7888C0.692403 13.4353 -0.000911247 16.3572 8.98869e-07 19.32V217.32C0.00447851 222.358 2.0077 227.188 5.56992 230.75C9.13214 234.312 13.9623 236.316 19 236.32H400C405.038 236.315 409.868 234.312 413.43 230.75C416.992 227.188 418.995 222.358 419 217.32V19.32C418.995 14.2823 416.992 9.45223 413.43 5.89003C409.868 2.32782 405.038 0.324579 400 0.32002V0.32002ZM417 217.32C416.994 221.827 415.2 226.147 412.014 229.334C408.827 232.52 404.507 234.314 400 234.32H19C14.4933 234.314 10.173 232.52 6.98624 229.334C3.7995 226.147 2.00638 221.827 2 217.32V19.32C2.0142 15.7273 3.15996 12.2304 5.27457 9.32594C7.38917 6.42145 10.3651 4.25702 13.7798 3.14003C13.9199 3.10003 14.0498 3.05002 14.1899 3.01002C15.752 2.55083 17.3719 2.31845 19 2.32002H400C404.507 2.32648 408.827 4.1196 412.014 7.30632C415.2 10.493 416.994 14.8133 417 19.32V217.32Z" fill="#3F3D56"/>
<path d="M537.218 258.592C538.534 257.735 539.646 256.599 540.475 255.265C541.304 253.932 541.831 252.433 542.018 250.873C542.206 249.314 542.049 247.732 541.559 246.24C541.069 244.748 540.258 243.382 539.182 242.237L545.154 171.026L528.049 172.908L523.363 242.216C521.56 244.15 520.528 246.678 520.465 249.321C520.401 251.965 521.309 254.54 523.017 256.558C524.725 258.577 527.114 259.899 529.731 260.274C532.348 260.649 535.012 260.05 537.218 258.592V258.592Z" fill="#FFB8B8"/>
<path d="M476.337 428.443L464.077 428.442L458.245 381.154L476.339 381.155L476.337 428.443Z" fill="#FFB8B8"/>
<path d="M455.32 424.939H478.964V439.826H440.433C440.433 437.871 440.818 435.935 441.567 434.129C442.315 432.323 443.411 430.682 444.794 429.299C446.176 427.917 447.817 426.82 449.623 426.072C451.429 425.324 453.365 424.939 455.32 424.939Z" fill="#2F2E41"/>
<path d="M563.337 428.443L551.077 428.442L545.245 381.154L563.339 381.155L563.337 428.443Z" fill="#FFB8B8"/>
<path d="M542.32 424.939H565.964V439.826H527.433C527.433 435.878 529.002 432.091 531.794 429.299C534.585 426.508 538.372 424.939 542.32 424.939V424.939Z" fill="#2F2E41"/>
<path d="M476.544 399.155C476.411 399.155 476.277 399.149 476.143 399.138L458.791 397.75C458.103 397.695 457.433 397.498 456.825 397.171C456.216 396.845 455.682 396.396 455.256 395.852C454.83 395.309 454.52 394.683 454.348 394.015C454.175 393.346 454.143 392.649 454.254 391.967L480.562 229.248L482.324 206.297C482.402 205.224 482.826 204.205 483.532 203.393C484.238 202.582 485.188 202.021 486.24 201.796L512.702 196.007C513.674 195.79 514.69 195.87 515.617 196.238C516.543 196.605 517.338 197.243 517.897 198.068L524.349 207.499C526.883 211.165 529.636 214.674 532.594 218.007C537.172 223.221 544.955 234.797 545.654 253.743C545.841 259.967 546.488 266.168 547.588 272.297L568.891 387.057C568.999 387.73 568.968 388.418 568.8 389.078C568.633 389.739 568.332 390.358 567.916 390.898C567.5 391.438 566.978 391.887 566.383 392.218C565.787 392.549 565.13 392.754 564.452 392.822L548.003 394.068C546.827 394.184 545.647 393.878 544.675 393.203C543.704 392.529 543.004 391.531 542.701 390.388L513.525 281.887C513.467 281.675 513.342 281.487 513.167 281.353C512.992 281.219 512.778 281.147 512.558 281.147C512.337 281.147 512.123 281.22 511.949 281.355C511.774 281.489 511.649 281.677 511.593 281.89L481.373 395.441C481.089 396.505 480.462 397.446 479.589 398.117C478.715 398.789 477.645 399.154 476.544 399.155Z" fill="#2F2E41"/>
<path d="M522.687 122.264C536.252 122.264 547.248 111.268 547.248 97.7031C547.248 84.1384 536.252 73.1421 522.687 73.1421C509.122 73.1421 498.126 84.1384 498.126 97.7031C498.126 111.268 509.122 122.264 522.687 122.264Z" fill="#FFB8B8"/>
<path d="M481.057 209.989L480.549 174.915C478.678 152.482 488.613 140.704 497.277 134.779C499.511 133.271 502.029 132.232 504.676 131.725C507.324 131.218 510.047 131.254 512.68 131.831L532.01 136.009C534.701 136.596 537.246 137.722 539.49 139.32C541.734 140.918 543.63 142.955 545.065 145.306C546.437 147.525 547.337 150.003 547.711 152.584C548.085 155.166 547.924 157.797 547.237 160.314C545.894 165.025 542.916 169.103 538.837 171.816C522.229 183.541 521.058 203.235 521.048 203.433L521.028 203.84L481.057 209.989Z" fill="#0C4184"/>
<path d="M541.549 183.908H524.549C523.356 183.907 522.212 183.432 521.369 182.588C520.525 181.745 520.05 180.601 520.049 179.408V149.908C520.049 146.46 521.419 143.153 523.857 140.715C526.295 138.278 529.601 136.908 533.049 136.908C536.497 136.908 539.803 138.278 542.241 140.715C544.679 143.153 546.049 146.46 546.049 149.908V179.408C546.048 180.601 545.573 181.745 544.73 182.588C543.886 183.432 542.742 183.907 541.549 183.908V183.908Z" fill="#0C4184"/>
<path d="M427.411 189.481C426.409 190.676 425.166 191.646 423.763 192.326C422.36 193.006 420.828 193.381 419.27 193.426C417.711 193.471 416.16 193.185 414.72 192.587C413.28 191.99 411.983 191.094 410.914 189.958C401.228 179.799 417.062 164.545 426.785 174.726C427.128 175.077 427.446 175.451 427.738 175.846L476.766 174.627L482.618 163.924L500.603 170.908C497.15 176.262 493.185 197.277 484.155 196.254C482.971 196.286 428.621 189.567 427.411 189.481Z" fill="#FFB8B8"/>
<path d="M492.998 181.382L479.293 171.324C478.332 170.618 477.69 169.558 477.509 168.379C477.328 167.2 477.622 165.997 478.327 165.034L495.781 141.251C496.791 139.875 498.062 138.711 499.522 137.826C500.982 136.941 502.602 136.352 504.289 136.093C505.977 135.834 507.699 135.91 509.357 136.317C511.015 136.723 512.576 137.452 513.953 138.462C515.329 139.472 516.493 140.744 517.378 142.204C518.263 143.663 518.852 145.283 519.111 146.971C519.37 148.658 519.294 150.38 518.887 152.038C518.481 153.696 517.752 155.258 516.742 156.634L499.288 180.417C498.581 181.378 497.522 182.019 496.343 182.2C495.163 182.381 493.961 182.087 492.998 181.382V181.382Z" fill="#0C4184"/>
<path d="M527.606 110.469C528.399 108.816 528.674 106.961 528.395 105.149C528.117 103.336 527.298 101.65 526.046 100.31C521.426 95.6516 514.207 98.7591 507.962 98.3029C497.561 97.5431 490.477 85.1397 493.582 75.1835C496.687 65.2272 507.724 59.049 518.132 59.7041C528.541 60.3592 537.964 66.7978 544.238 75.1292C548.531 68.2183 559.081 67.4124 565.889 71.8672C572.697 76.3221 576.22 84.4634 577.676 92.4683C579.132 100.473 578.894 108.7 580.12 116.743C583.092 136.24 595.675 154.6 613.883 162.179C632.091 169.757 655.391 164.887 667.303 149.168C669.619 168.217 665.556 187.496 655.749 203.989C645.941 220.482 630.944 233.26 613.102 240.322C603.235 244.227 592.338 246.301 581.951 244.13C565.181 240.626 552.137 226.284 546.453 210.122C540.768 193.961 541.449 176.228 544.21 159.32C545.91 148.905 547.793 136.572 540.198 129.247C538.066 127.472 535.557 126.207 532.863 125.548C531.434 125.119 530.122 124.369 529.027 123.356C527.932 122.343 527.082 121.094 526.543 119.703C526.004 118.311 525.79 116.816 525.917 115.329C526.043 113.843 526.507 112.405 527.274 111.125C527.397 110.907 527.508 110.689 527.606 110.469Z" fill="#2F2E41"/>
<path d="M615.779 440.25H387.779C387.514 440.25 387.26 440.145 387.072 439.957C386.885 439.77 386.779 439.515 386.779 439.25C386.779 438.985 386.885 438.73 387.072 438.543C387.26 438.355 387.514 438.25 387.779 438.25H615.779C616.045 438.25 616.299 438.355 616.486 438.543C616.674 438.73 616.779 438.985 616.779 439.25C616.779 439.515 616.674 439.77 616.486 439.957C616.299 440.145 616.045 440.25 615.779 440.25Z" fill="#3F3D56"/>
<path d="M209.083 118.236C207.566 118.235 206.073 117.85 204.745 117.117L5.70133 7.56449C5.46901 7.43661 5.297 7.22166 5.22315 6.96696C5.1493 6.71225 5.17965 6.43866 5.30753 6.20634C5.43541 5.97401 5.65036 5.80201 5.90507 5.72816C6.15977 5.6543 6.43336 5.68466 6.66569 5.81254L205.709 115.365C206.724 115.926 207.863 116.225 209.022 116.235C210.182 116.245 211.325 115.966 212.35 115.424L414.67 8.69437C414.786 8.63279 414.913 8.5947 415.044 8.58231C415.175 8.56993 415.307 8.58349 415.433 8.6222C415.558 8.66091 415.675 8.72403 415.776 8.80793C415.877 8.89183 415.961 8.99484 416.022 9.11112C416.084 9.2274 416.122 9.35463 416.134 9.48554C416.146 9.61645 416.132 9.74847 416.093 9.87403C416.054 9.99959 415.991 10.1162 415.907 10.2173C415.823 10.3183 415.719 10.4018 415.603 10.4629L213.283 117.192C211.989 117.877 210.547 118.235 209.083 118.236V118.236Z" fill="#3F3D56"/>
<path d="M63.5667 186.32H35.5667C33.4449 186.32 31.4101 185.477 29.9098 183.977C28.4095 182.476 27.5667 180.442 27.5667 178.32C27.5667 176.198 28.4095 174.163 29.9098 172.663C31.4101 171.163 33.4449 170.32 35.5667 170.32H63.5667C65.6884 170.32 67.7232 171.163 69.2235 172.663C70.7238 174.163 71.5667 176.198 71.5667 178.32C71.5667 180.442 70.7238 182.476 69.2235 183.977C67.7232 185.477 65.6884 186.32 63.5667 186.32Z" fill="#3F3D56"/>
<path d="M96.5667 213.32H35.5667C33.4449 213.32 31.4101 212.477 29.9098 210.977C28.4095 209.476 27.5667 207.442 27.5667 205.32C27.5667 203.198 28.4095 201.163 29.9098 199.663C31.4101 198.163 33.4449 197.32 35.5667 197.32H96.5667C98.6884 197.32 100.723 198.163 102.224 199.663C103.724 201.163 104.567 203.198 104.567 205.32C104.567 207.442 103.724 209.476 102.224 210.977C100.723 212.477 98.6884 213.32 96.5667 213.32Z" fill="#3F3D56"/>
<path d="M209.004 150.32C226.677 150.32 241.004 135.993 241.004 118.32C241.004 100.647 226.677 86.3199 209.004 86.3199C191.331 86.3199 177.004 100.647 177.004 118.32C177.004 135.993 191.331 150.32 209.004 150.32Z" fill="#0C4184"/>
<path d="M319.182 163.942C326.02 162.681 326.05 152.727 326.05 152.727C325.75 154.15 325.049 154.288 321.488 155.429C317.926 156.569 315.777 160.247 315.777 160.247C305.133 148.128 295.984 161.324 295.984 161.324C297.512 163.618 299.749 165.348 302.353 166.25C301.932 167.277 301.488 168.709 302.011 169.234C302.612 169.834 304.256 167.988 305.14 166.881C305.404 166.911 305.669 166.938 305.933 166.956C306.441 167.973 307.7 170.648 307.697 172.236C307.697 172.236 310.601 172.014 310.234 166.728C312.075 166.428 313.87 165.894 315.575 165.14C315.575 165.14 315.275 173.386 317.679 173.818C320.084 174.25 322.44 177.174 322.44 177.174C326.011 170.219 319.182 163.942 319.182 163.942V163.942ZM361.737 148.336C368.554 149.698 372.278 140.465 372.278 140.465C371.482 141.665 370.775 141.542 367.039 141.272C363.303 141.002 359.949 143.62 359.949 143.62C354.566 128.437 341.166 137.316 341.166 137.316C341.734 140.012 343.17 142.448 345.254 144.25C344.481 145.049 343.538 146.213 343.829 146.892C344.166 147.687 346.375 146.567 347.607 145.865C347.842 145.994 348.079 146.114 348.317 146.228C348.41 147.363 348.587 150.314 347.995 151.788C347.995 151.788 350.775 152.655 352.395 147.609C354.207 148.011 356.062 148.181 357.917 148.113C357.917 148.113 354.569 155.657 356.655 156.957C358.741 158.256 359.829 161.835 359.829 161.835C365.735 156.687 361.737 148.336 361.737 148.336V148.336Z" fill="#F08130"/>
</svg>
