<?xml version="1.0" standalone="no"?>
<!DOCTYPE svg PUBLIC "-//W3C//DTD SVG 20010904//EN"
 "http://www.w3.org/TR/2001/REC-SVG-20010904/DTD/svg10.dtd">
<svg version="1.0" xmlns="http://www.w3.org/2000/svg"
 width="700.000000pt" height="700.000000pt" viewBox="0 0 700.000000 700.000000"
 preserveAspectRatio="xMidYMid meet">
<metadata>
Created by potrace 1.14, written by Peter Selinger 2001-2017
</metadata>
<g transform="translate(0.000000,700.000000) scale(0.100000,-0.100000)"
fill="#000000" stroke="none">
<path d="M1854 5974 c-25 -25 -39 -32 -48 -25 -16 13 -34 0 -30 -21 1 -10 -2
-18 -7 -18 -6 0 -8 -4 -4 -9 9 -16 -12 -22 -41 -10 -20 7 -30 7 -32 0 -2 -6
-10 -11 -18 -11 -9 0 -12 -5 -8 -11 3 -6 1 -15 -6 -19 -6 -4 -13 -30 -13 -59
-1 -28 -6 -51 -11 -51 -4 0 -2 -10 6 -22 8 -13 14 -31 12 -40 -1 -10 1 -18 5
-18 4 0 7 -8 8 -17 0 -10 3 -37 6 -60 4 -33 0 -49 -20 -77 -13 -20 -20 -36
-16 -36 4 0 0 -6 -9 -12 -9 -7 -27 -33 -39 -58 -21 -39 -51 -78 -95 -124 -6
-6 -26 -34 -46 -63 -20 -29 -38 -49 -42 -46 -3 4 -6 1 -6 -5 0 -12 -11 -27
-60 -82 -14 -16 -34 -40 -45 -54 -11 -14 -26 -25 -34 -26 -8 0 -12 -3 -8 -6 7
-7 -61 -74 -75 -74 -5 0 -6 -4 -3 -10 3 -5 1 -10 -4 -10 -6 0 -33 -22 -61 -50
-28 -27 -53 -50 -55 -50 -10 1 -34 -27 -29 -33 3 -3 -13 -15 -35 -28 -23 -12
-41 -26 -41 -31 0 -4 -4 -7 -9 -5 -5 1 -22 -10 -39 -25 -17 -14 -32 -25 -34
-22 -3 2 -11 -7 -18 -21 -7 -14 -18 -25 -24 -25 -16 -1 -56 -36 -56 -49 0 -6
-7 -11 -15 -11 -8 0 -15 -5 -15 -10 0 -6 -3 -9 -8 -8 -4 2 -19 -6 -32 -17 -26
-21 -39 -55 -20 -55 5 0 10 -5 10 -11 0 -5 -4 -8 -9 -5 -14 9 -21 -20 -8 -34
9 -10 9 -11 0 -6 -7 4 -13 2 -13 -4 0 -6 -5 -8 -12 -4 -7 4 -8 3 -4 -5 4 -6
12 -9 17 -6 5 4 9 -1 9 -11 0 -15 -2 -15 -25 0 -22 15 -26 15 -31 2 -7 -17 3
-36 18 -36 6 0 6 6 -2 15 -19 23 -8 26 18 5 17 -14 19 -21 10 -27 -21 -13 -17
-40 8 -54 13 -7 24 -17 24 -24 0 -6 16 -10 35 -10 19 0 35 4 35 9 0 5 3 6 6 3
4 -4 1 -13 -6 -22 -7 -8 -11 -15 -9 -16 29 -6 48 -4 39 5 -5 5 -10 15 -10 20
0 7 3 8 8 1 12 -17 47 -41 38 -27 -5 8 2 12 26 13 32 1 47 3 58 8 3 1 16 5 30
7 13 3 36 15 50 28 14 13 45 33 70 44 47 20 114 75 105 84 -5 5 6 9 58 23 4 2
13 3 20 4 6 1 27 15 45 32 18 17 38 32 45 33 22 4 60 28 85 55 13 14 28 25 33
23 5 -1 14 9 19 23 5 14 14 25 20 25 5 0 12 0 15 0 13 0 64 54 59 62 -3 5 3
12 15 15 12 3 21 9 21 14 0 5 4 8 9 6 10 -2 81 72 81 86 0 4 5 5 10 2 6 -3 10
-2 10 2 0 5 11 20 25 35 24 26 31 27 73 11 9 -3 24 -7 32 -7 8 -1 20 -4 25 -7
10 -6 90 -4 135 4 14 2 33 0 44 -5 14 -8 17 -7 10 4 -6 11 -5 11 9 -1 14 -11
17 -11 17 0 0 12 2 12 9 0 6 -10 10 -10 16 -1 4 6 14 9 22 6 11 -4 13 -2 9 9
-4 10 1 15 15 15 11 0 18 4 15 8 -2 4 9 8 25 7 16 0 29 -4 29 -9 0 -5 6 -3 14
3 10 8 16 9 21 1 3 -5 17 -10 31 -10 13 0 24 -5 24 -11 0 -8 6 -7 18 2 13 11
12 8 -3 -11 -11 -14 -26 -29 -33 -33 -7 -5 -10 -12 -7 -18 4 -5 1 -9 -6 -9 -9
0 -9 -3 0 -14 9 -11 7 -15 -11 -21 -13 -4 -26 -7 -30 -6 -5 1 -8 -4 -8 -9 0
-5 -3 -10 -7 -9 -16 2 -53 -14 -53 -23 0 -5 -9 -21 -20 -35 -11 -14 -20 -23
-20 -19 0 3 -20 -15 -45 -41 -25 -26 -43 -53 -41 -60 3 -6 -5 -15 -17 -19 -21
-6 -83 -64 -69 -64 4 0 -1 -5 -10 -10 -9 -6 -19 -23 -23 -40 -4 -16 -10 -29
-13 -29 -19 3 -32 -3 -60 -30 -16 -16 -28 -32 -24 -35 3 -3 -2 -6 -12 -6 -9 0
-14 -4 -11 -10 3 -5 1 -11 -4 -11 -26 -3 -30 -4 -37 -11 -4 -4 -13 -3 -21 3
-7 6 -13 7 -13 2 0 -4 -19 -8 -42 -8 -45 0 -182 -20 -208 -32 -8 -3 -56 -7
-107 -7 -51 -1 -95 -5 -99 -9 -4 -4 -16 -7 -26 -7 -12 0 -16 -4 -12 -12 4 -7
3 -8 -4 -4 -7 4 -18 4 -24 -1 -12 -7 -41 -11 -130 -16 -16 -1 -28 -4 -28 -7 0
-4 -10 -7 -22 -7 -27 -2 -43 -6 -78 -20 -14 -6 -28 -9 -32 -6 -5 2 -8 -1 -8
-7 0 -6 -6 -10 -12 -9 -13 2 -33 -4 -78 -23 -14 -6 -29 -12 -35 -13 -17 -2
-70 -29 -77 -40 -4 -5 -8 -7 -8 -2 0 8 -69 -27 -109 -55 -18 -13 -21 -21 -14
-30 15 -18 12 -45 -4 -45 -9 0 -10 4 -3 11 5 5 10 15 10 20 0 6 -5 3 -11 -7
-6 -9 -14 -15 -20 -12 -5 3 -6 -1 -3 -9 3 -9 11 -16 18 -16 6 0 4 -5 -4 -10
-12 -8 -11 -10 8 -10 23 0 30 -14 12 -25 -5 -3 -10 -11 -10 -16 0 -6 4 -8 8
-5 4 2 9 -7 10 -20 1 -18 -2 -23 -11 -18 -9 5 -8 3 1 -7 7 -8 17 -15 23 -15 5
-1 14 -2 19 -3 6 0 10 -9 10 -19 0 -10 7 -19 15 -19 9 0 14 6 11 14 -3 8 -2
12 3 8 5 -3 11 1 14 7 3 10 8 10 18 -1 8 -8 9 -11 3 -8 -7 4 -14 0 -18 -8 -4
-10 1 -15 14 -15 11 0 21 -4 21 -10 1 -5 2 -18 3 -27 1 -10 4 -23 8 -29 4 -6
5 -14 1 -18 -3 -3 -8 -20 -10 -38 -2 -17 -5 -42 -7 -55 -3 -12 0 -23 6 -23 7
0 7 -4 1 -12 -6 -7 -8 -22 -6 -33 2 -11 4 -36 3 -55 -5 -136 1 -228 16 -238
17 -11 25 -55 9 -49 -12 5 -12 -14 2 -53 3 -8 5 -39 5 -67 -1 -29 4 -55 9 -59
6 -4 6 -11 -1 -19 -7 -8 -10 -30 -7 -50 3 -19 1 -38 -5 -41 -5 -3 -7 -20 -5
-37 3 -23 8 -31 20 -29 13 2 17 -5 17 -35 0 -21 -6 -47 -14 -58 -7 -11 -11
-29 -9 -40 2 -11 4 -36 4 -55 1 -42 33 -90 60 -90 11 0 18 -4 15 -9 -3 -5 1
-14 9 -21 8 -7 15 -26 15 -43 0 -23 10 -40 39 -68 50 -46 66 -52 86 -33 10 10
15 11 15 3 0 -8 4 -8 13 -1 13 11 42 -10 30 -22 -4 -3 1 -7 10 -7 22 -2 26 -3
62 -19 31 -13 153 -21 160 -10 2 3 23 7 47 9 54 4 93 8 93 11 0 1 20 3 45 5
25 2 55 6 68 10 12 4 22 3 22 -2 0 -5 25 -8 58 -6 31 2 64 4 72 5 8 0 20 5 26
9 6 5 20 7 32 4 12 -2 24 0 27 5 3 5 13 6 22 3 12 -5 14 -3 8 8 -6 11 -5 11 5
2 14 -13 63 3 54 18 -7 12 27 11 45 0 18 -12 73 7 64 22 -4 6 0 8 10 4 9 -3
19 -2 23 4 3 6 10 6 17 1 7 -5 23 -8 37 -6 69 7 80 9 80 16 0 4 7 5 15 2 8 -4
15 -2 15 3 0 5 10 10 23 10 12 1 39 3 60 6 20 3 39 1 42 -3 6 -9 24 -8 42 3
15 10 73 5 73 -6 0 -4 6 -5 12 0 18 10 69 13 63 3 -3 -4 6 -3 19 3 14 7 20 15
14 18 -16 10 16 17 70 15 30 -1 48 2 45 8 -4 5 1 7 10 3 9 -3 19 -1 23 5 4 7
3 8 -4 4 -7 -4 -12 -2 -12 3 0 6 0 14 0 19 0 4 8 7 17 8 15 1 18 -6 14 -39 -4
-42 -24 -73 -40 -63 -14 9 -43 -24 -37 -41 4 -10 1 -13 -13 -8 -13 4 -24 -2
-36 -21 -9 -15 -13 -24 -7 -20 5 3 12 -3 15 -15 4 -16 3 -18 -9 -8 -8 6 -15 9
-15 5 -5 -23 -3 -33 11 -44 13 -12 12 -13 -5 -8 -17 5 -18 4 -5 -6 8 -7 16
-22 17 -33 3 -39 10 -57 24 -66 8 -5 10 -9 4 -9 -5 0 -2 -7 8 -14 10 -8 19
-18 20 -23 1 -4 5 -7 10 -6 4 2 7 -4 7 -13 0 -8 5 -12 10 -9 6 4 7 12 4 18 -4
7 4 1 19 -11 17 -16 24 -31 21 -47 -2 -14 2 -25 11 -29 8 -3 15 -14 15 -24 0
-10 8 -28 18 -40 9 -11 25 -32 36 -46 30 -41 102 -112 120 -119 10 -4 15 -11
11 -16 -3 -5 -1 -12 4 -15 4 -3 11 -19 14 -36 4 -16 13 -30 21 -30 18 0 36
-23 40 -52 5 -40 36 -95 48 -83 2 3 4 -13 5 -34 0 -21 5 -47 11 -57 8 -14 10
-3 7 46 -2 36 -1 60 3 54 10 -17 52 -28 52 -14 0 6 -4 9 -9 6 -5 -4 -4 5 2 19
16 33 31 37 46 13 11 -18 10 -18 -11 -7 -21 11 -22 11 -9 -4 7 -9 10 -25 7
-34 -6 -15 -5 -16 5 -5 17 16 29 15 29 -1 0 -8 12 -13 30 -13 22 1 36 9 50 30
10 17 17 33 14 37 -2 4 1 11 7 15 8 4 9 3 5 -4 -4 -7 -2 -12 3 -12 6 0 14 0
19 0 4 0 7 6 7 13 0 6 6 18 13 26 7 7 10 21 7 30 -5 13 -4 14 6 4 15 -15 53
-17 44 -3 -3 5 -2 10 3 10 5 0 12 9 15 20 3 12 1 18 -5 14 -7 -4 -7 0 0 12 10
20 9 35 -3 94 -4 19 -8 40 -9 45 -1 6 -5 16 -10 23 -4 7 -6 16 -2 19 3 3 -1
12 -9 20 -8 8 -15 24 -15 35 0 12 -3 19 -6 15 -8 -8 -54 34 -48 45 3 4 -2 8
-11 8 -9 0 -13 5 -10 10 3 6 -1 13 -9 16 -9 3 -16 11 -16 18 0 13 -137 146
-150 146 -5 0 -21 12 -37 27 -15 16 -28 27 -30 26 -9 -8 -24 0 -54 26 -18 16
-37 27 -41 25 -5 -3 -8 -2 -7 3 3 17 -1 36 -7 31 -3 -4 -15 3 -26 14 -11 11
-26 17 -34 14 -8 -3 -14 0 -14 7 -1 17 -49 50 -65 43 -7 -2 -19 2 -26 10 -10
13 -15 12 -33 -3 -19 -17 -20 -17 -7 0 9 11 10 17 2 17 -6 0 -11 12 -11 26 0
17 4 23 13 18 9 -6 9 -4 -1 8 -10 13 -10 19 3 32 17 17 30 22 21 8 -3 -5 2 -9
10 -9 8 0 13 6 10 14 -4 8 3 13 18 13 14 0 26 4 28 9 2 5 17 3 33 -4 26 -11
27 -13 8 -14 -16 -1 -20 -6 -16 -21 5 -19 6 -19 23 3 13 16 15 26 8 34 -8 10
-5 13 13 13 44 0 59 3 59 14 0 7 9 18 19 26 11 7 18 17 16 20 -2 4 3 18 13 31
9 13 18 33 20 44 1 11 9 23 18 28 9 5 12 13 6 20 -4 7 -7 18 -6 25 1 6 2 20 3
29 0 9 4 14 7 10 11 -11 34 23 60 88 4 11 9 25 9 30 1 6 7 22 13 36 6 15 14
44 18 65 4 22 8 47 10 58 2 10 5 21 8 23 3 3 1 16 -4 29 -6 16 -6 24 1 24 6 0
8 4 4 9 -3 5 -1 12 5 16 6 4 8 10 5 15 -3 5 -1 11 4 15 5 3 8 14 6 25 -2 10 7
30 20 44 12 13 21 27 19 29 -2 2 5 12 16 22 15 13 17 22 9 36 -6 13 -6 19 1
19 5 0 10 7 10 15 0 8 6 15 13 15 8 0 8 3 2 8 -9 6 -12 26 -5 35 4 5 11 44 12
75 1 17 5 32 9 32 3 0 7 20 7 44 1 24 3 56 6 72 20 121 27 361 11 383 -8 12
-7 13 5 6 13 -8 13 -7 1 8 -7 9 -11 26 -8 37 3 11 1 20 -5 20 -5 0 -6 5 -3 10
4 6 -7 24 -24 40 -16 17 -27 30 -24 30 4 0 -7 11 -23 25 -20 18 -30 21 -36 12
-6 -9 -8 -9 -8 1 0 6 -5 12 -11 12 -7 0 -20 9 -29 20 -27 31 -115 41 -362 43
-201 2 -217 3 -214 19 2 18 46 65 46 51 0 -4 4 -3 8 2 4 6 22 23 40 38 19 15
31 27 28 27 -3 0 5 10 18 23 12 12 27 29 32 38 5 8 22 25 38 37 16 12 26 22
23 22 -4 0 5 17 19 37 13 20 22 43 20 50 -3 7 5 19 17 28 12 8 18 15 14 15 -4
0 3 10 15 22 13 13 27 22 31 20 5 -1 6 2 2 8 -3 5 -1 10 5 10 6 0 8 5 5 10 -3
6 -1 10 5 10 6 0 9 4 5 9 -3 5 4 12 15 16 11 4 20 15 20 26 0 13 12 25 35 35
20 8 38 21 41 29 4 8 10 13 14 10 5 -3 11 3 15 14 5 17 89 58 108 53 5 -1 6 2
2 8 -3 5 -2 10 3 10 15 0 23 28 10 36 -7 4 -8 3 -4 -4 4 -7 2 -12 -3 -12 -17
0 -13 14 8 32 11 9 23 13 27 10 4 -4 4 -1 0 6 -4 6 -19 12 -33 12 l-25 0 23
20 c13 10 21 19 17 20 -4 0 8 17 27 38 19 20 30 39 25 40 -6 2 -10 10 -10 19
0 25 -57 72 -80 66 -11 -3 -20 0 -20 6 0 6 7 8 17 4 12 -5 14 -3 8 7 -5 9 -4
11 3 6 7 -4 12 -1 12 8 0 9 -6 16 -12 17 -21 1 -62 9 -78 15 -13 4 -12 7 3 15
23 13 22 32 -3 54 -15 13 -37 19 -81 19 -34 1 -63 -2 -65 -6 -3 -4 -11 -5 -19
-1 -8 3 -15 1 -15 -5 0 -6 -11 -9 -25 -7 -17 1 -29 -4 -35 -16 -6 -10 -18 -18
-28 -17 -9 0 -28 -3 -42 -7 -14 -3 -50 -8 -80 -11 -30 -3 -62 -8 -70 -11 -14
-5 -27 -7 -95 -17 -16 -2 -49 -8 -72 -14 -24 -5 -43 -7 -43 -3 0 3 -4 0 -8 -6
-5 -7 -20 -14 -35 -15 -15 -1 -27 -6 -27 -11 0 -4 -4 -6 -8 -3 -5 3 -21 -1
-36 -9 -18 -10 -25 -11 -21 -2 4 7 0 4 -8 -6 -8 -9 -30 -19 -48 -20 -19 -2
-39 -5 -44 -8 -6 -3 -29 -4 -52 -3 -25 0 -43 -4 -43 -10 -1 -6 -7 0 -15 14
-13 23 -12 27 12 48 17 14 27 34 29 55 1 17 3 35 3 40 1 4 8 7 16 7 15 0 39
66 39 108 0 12 4 22 9 22 4 0 5 4 2 10 -3 5 -1 18 4 29 6 11 12 54 13 95 2 67
-1 78 -20 96 -13 13 -22 33 -22 51 0 42 -30 105 -41 87 -7 -11 -11 -10 -18 1
-16 25 -41 22 -41 -5 0 -15 -4 -23 -10 -19 -6 4 -8 10 -5 15 3 5 -4 14 -15 20
-18 10 -21 9 -20 -7 4 -39 0 -49 -12 -28 -14 24 -18 55 -6 55 18 0 -18 40 -44
49 -24 9 -32 6 -64 -25z m1288 -820 c-7 -12 -11 -13 -17 -4 -4 7 -2 16 6 21
18 11 23 4 11 -17z m-252 -248 c0 -3 -4 -8 -10 -11 -5 -3 -10 -1 -10 4 0 6 5
11 10 11 6 0 10 -2 10 -4z m-2182 -601 c2 -31 -12 -39 -29 -18 -12 14 -12 16
0 9 9 -6 12 -5 9 5 -3 8 -11 13 -17 11 -7 -1 -10 1 -8 6 3 4 14 8 24 9 13 1
19 -6 21 -22z m-93 -295 c-3 -5 0 -10 7 -11 10 0 10 -2 0 -6 -6 -2 -10 -9 -7
-14 4 -5 -1 -6 -10 -2 -13 5 -14 7 -3 14 7 5 9 9 5 9 -9 0 1 20 9 20 3 0 2 -4
-1 -10z m2163 -114 c37 2 37 5 16 -111 -4 -22 -7 -48 -8 -57 0 -10 -3 -18 -6
-18 -4 0 -7 -16 -7 -36 0 -20 -5 -39 -11 -43 -7 -4 -55 -6 -107 -5 -52 1 -95
-2 -95 -7 0 -11 -87 -12 -94 -1 -6 10 -247 9 -264 -1 -7 -5 -12 -3 -12 4 0 7
-4 8 -12 2 -17 -12 -48 -11 -49 2 0 6 -4 15 -9 20 -4 6 -6 18 -5 28 2 9 -1 14
-7 11 -6 -4 -9 7 -7 27 4 41 -10 119 -23 136 -18 22 -5 48 25 48 15 1 27 -3
27 -7 0 -5 12 -5 27 -2 15 4 46 8 68 8 22 1 45 5 52 9 6 4 15 2 18 -4 9 -13
115 -10 134 5 12 9 13 8 6 -4 -8 -13 -7 -13 9 -1 11 10 20 11 24 4 4 -6 50 -9
117 -8 135 3 128 2 118 18 -4 7 2 6 17 -4 14 -8 40 -14 58 -13z m-1288 -57 c0
-6 49 -6 75 1 6 1 12 1 15 0 14 -6 77 -4 73 3 -2 4 9 7 25 7 l29 0 0 -87 c1
-49 -4 -96 -9 -107 -7 -12 -6 -22 0 -28 19 -19 -8 -58 -40 -58 -16 0 -42 -7
-57 -15 -16 -8 -31 -11 -35 -8 -8 9 -156 10 -156 2 0 -4 -12 -6 -27 -6 -16 0
-35 -3 -43 -6 -8 -4 -42 -8 -76 -10 -33 -2 -66 -7 -73 -12 -8 -4 -29 -11 -47
-15 -42 -10 -49 -1 -59 70 -1 14 -4 25 -5 25 -1 0 -3 14 -5 30 -3 31 -7 48
-24 110 -11 42 -6 59 14 51 8 -3 15 0 18 7 4 14 39 16 49 2 5 -6 8 -6 8 2 0 6
9 9 20 6 15 -4 19 -2 14 10 -5 13 1 15 33 13 21 -2 45 -6 53 -9 32 -12 60 -15
54 -6 -4 7 51 15 79 10 4 -1 10 6 13 14 5 11 18 15 45 13 22 -1 39 -5 39 -9z
m-340 -5 c0 -8 -19 -13 -24 -6 -3 5 1 9 9 9 8 0 15 -2 15 -3z m1410 -279 c5 3
10 1 10 -4 0 -17 -26 -13 -41 7 -13 15 -12 16 3 4 9 -8 22 -11 28 -7z m569
-161 c-6 -8 -15 -12 -18 -8 -3 4 0 9 7 11 6 3 9 10 6 15 -4 7 -2 8 5 4 9 -6 9
-11 0 -22z m-609 -196 c3 -3 20 -8 39 -11 39 -6 62 -24 45 -35 -23 -15 -36
-66 -23 -93 5 -10 1 -21 -12 -32 -10 -9 -19 -13 -19 -9 0 4 -8 -7 -16 -25 -17
-33 -30 -42 -79 -50 -16 -3 -43 -11 -60 -19 -16 -7 -39 -15 -50 -18 -11 -2
-31 -7 -45 -12 -14 -4 -25 -6 -26 -3 0 2 -8 -4 -18 -13 -26 -27 -45 -23 -42
10 3 25 7 38 25 87 4 11 7 30 6 43 -1 12 1 22 4 22 3 0 6 29 5 63 l-1 64 39
-1 c21 -1 38 2 38 7 0 4 6 5 13 0 18 -11 38 -13 31 -2 -3 5 5 9 18 10 13 0 17
3 9 6 -9 4 -10 7 -2 13 14 8 114 7 121 -2z m-939 -73 c19 -3 36 -10 37 -16 2
-5 8 -6 13 -3 6 3 30 8 53 10 24 2 47 4 52 5 22 4 30 -3 30 -26 0 -14 -3 -25
-7 -25 -9 0 -22 -46 -25 -85 -1 -16 -9 -46 -17 -66 -17 -37 -15 -78 2 -89 20
-12 -6 -25 -54 -27 -27 -1 -66 -5 -85 -8 -64 -11 -90 -11 -90 -2 0 4 -5 5 -10
2 -12 -7 -247 -14 -271 -8 -11 3 -16 14 -14 36 1 18 0 35 -2 39 -2 4 -5 59 -6
122 -2 100 0 116 15 119 9 3 21 0 27 -6 7 -7 15 -7 23 0 16 12 78 16 78 5 0
-10 51 -9 68 2 7 4 12 2 12 -6 0 -8 3 -9 8 -3 4 6 24 11 44 11 21 1 45 9 53
18 9 9 20 14 24 12 4 -3 23 -8 42 -11z m1356 -315 c2 -20 -8 -26 -20 -13 -4 3
-2 12 4 20 15 17 14 17 16 -7z m-333 -291 c-3 -5 -14 -5 -25 1 -26 14 -24 18
6 12 14 -2 22 -8 19 -13z m-1650 -125 c9 -24 7 -27 -9 -10 -17 17 -19 26 -6
26 5 0 12 -7 15 -16z m1676 12 c0 -2 -7 -7 -16 -10 -8 -3 -12 -2 -9 4 6 10 25
14 25 6z m100 -26 c0 -5 -2 -10 -4 -10 -3 0 -8 5 -11 10 -3 6 -1 10 4 10 6 0
11 -4 11 -10z"/>
<path d="M3255 5169 c-10 -15 3 -25 16 -12 7 7 7 13 1 17 -6 3 -14 1 -17 -5z"/>
<path d="M5709 5138 c-12 -18 -19 -25 -16 -16 5 13 0 17 -21 15 -15 -1 -30 -6
-34 -12 -5 -6 -8 -6 -8 1 0 11 -12 13 -77 16 -40 1 -224 -17 -230 -22 -8 -7
-63 -4 -63 4 0 5 -6 3 -13 -3 -8 -6 -17 -8 -21 -4 -10 10 -36 12 -36 3 0 -5
-18 -8 -41 -7 -28 2 -43 -2 -49 -13 -5 -8 -10 -10 -10 -4 0 14 -50 13 -50 -2
0 -8 -13 -10 -37 -7 -76 9 -128 10 -150 2 -13 -5 -25 -4 -28 2 -4 5 -12 6 -18
2 -7 -5 -43 -9 -82 -10 -139 -5 -337 -18 -376 -26 -10 -1 -24 -9 -32 -15 -10
-9 -17 -10 -22 -2 -3 6 -10 8 -16 5 -5 -3 -33 -7 -64 -7 -30 -1 -55 -4 -55 -7
0 -3 -21 -6 -48 -5 -26 0 -72 -6 -102 -14 -30 -8 -71 -16 -90 -17 -19 -1 -35
-3 -35 -5 0 -1 -18 -3 -40 -4 -22 0 -45 -5 -52 -9 -6 -4 -14 -1 -16 5 -4 10
-6 10 -6 1 -1 -7 -11 -13 -24 -13 -13 0 -27 -3 -31 -7 -6 -6 -17 -8 -91 -15
-16 -2 -33 -7 -37 -12 -3 -5 -17 -10 -30 -10 -12 -1 -32 -7 -43 -13 -11 -6
-22 -11 -25 -11 -10 -1 -45 -14 -80 -30 -19 -9 -39 -15 -43 -14 -5 1 -5 -3 -1
-9 5 -9 2 -10 -9 -6 -10 3 -17 3 -17 -2 0 -4 -11 -14 -25 -21 -18 -10 -22 -16
-13 -22 9 -5 10 -8 1 -8 -7 0 -10 -9 -8 -21 3 -15 0 -19 -10 -16 -7 3 -16 0
-18 -7 -4 -9 2 -12 18 -10 18 2 23 -2 22 -18 -1 -12 -10 -23 -20 -26 -13 -3
-15 -7 -7 -12 7 -4 13 -19 13 -32 2 -18 6 -24 16 -20 8 3 12 1 8 -5 -4 -7 5
-9 25 -7 29 4 30 3 13 -9 -14 -11 -15 -16 -5 -22 9 -6 11 -4 6 6 -4 8 -1 6 7
-3 8 -10 20 -18 26 -18 7 0 9 -5 6 -10 -4 -6 -1 -18 6 -26 21 -26 28 -75 28
-217 1 -49 5 -86 10 -83 11 7 8 -47 -3 -56 -6 -4 -6 -12 1 -20 5 -7 9 -30 8
-50 -1 -22 3 -42 11 -49 8 -6 10 -16 6 -23 -11 -17 -8 -120 4 -132 6 -7 9 -26
8 -43 -1 -17 2 -31 7 -31 5 0 9 -12 9 -26 0 -15 8 -33 18 -41 11 -10 12 -12 2
-8 -10 4 -9 2 3 -8 12 -10 17 -29 17 -61 0 -29 4 -45 10 -41 10 6 14 -20 11
-57 -1 -10 3 -18 10 -18 7 0 10 -3 6 -6 -3 -3 -1 -18 5 -33 5 -14 12 -37 13
-51 6 -46 16 -82 30 -116 10 -24 11 -34 2 -37 -9 -3 -8 -11 2 -31 9 -16 17
-22 22 -15 17 28 15 -20 -4 -66 -20 -51 -33 -180 -22 -222 3 -13 13 -23 23
-24 10 0 12 -3 4 -6 -6 -2 -9 -9 -6 -15 4 -6 9 -29 12 -52 2 -23 9 -44 14 -47
5 -3 10 -10 11 -15 0 -5 20 -27 43 -50 37 -35 48 -40 79 -37 20 2 35 -1 35 -7
0 -5 15 -10 33 -10 18 0 39 -6 46 -12 11 -10 13 -10 7 0 -9 15 6 16 22 0 8 -8
12 -8 12 -1 0 6 16 14 36 17 23 5 34 12 31 20 -4 9 8 13 39 15 24 1 44 -2 44
-7 0 -11 68 -7 103 7 15 6 27 7 27 3 0 -4 4 -1 9 7 5 8 29 14 61 16 38 1 55 6
62 19 6 11 14 14 21 9 13 -10 53 -10 77 0 8 4 26 8 40 9 14 2 31 7 38 11 7 5
12 3 12 -3 0 -6 5 -8 12 -4 6 4 8 3 4 -4 -3 -6 -2 -13 3 -17 10 -6 11 -45 1
-45 -3 0 -5 -49 -4 -110 1 -121 6 -112 -71 -114 -22 -1 -44 -4 -50 -7 -9 -6
-46 -8 -175 -13 -25 -1 -50 -5 -56 -9 -6 -3 -14 -4 -18 0 -8 9 -76 11 -76 2 0
-3 -13 -5 -30 -4 -16 1 -30 -2 -30 -7 0 -5 -4 -7 -10 -3 -13 8 -150 13 -150 6
0 -4 -18 -6 -40 -5 -22 0 -40 -4 -40 -9 0 -5 -6 -4 -14 2 -11 9 -16 9 -21 1
-4 -7 -16 -10 -26 -7 -10 3 -19 1 -21 -4 -2 -5 -21 -11 -43 -13 -22 -3 -47 -6
-55 -9 -8 -2 -33 -7 -55 -12 -22 -4 -45 -12 -52 -17 -7 -5 -18 -6 -24 -2 -8 4
-9 3 -5 -4 4 -6 1 -22 -6 -34 -18 -33 -17 -41 12 -61 14 -10 18 -17 10 -16 -8
1 -26 -3 -40 -9 -14 -6 -21 -11 -16 -11 5 -1 3 -8 -4 -16 -11 -13 -8 -15 18
-15 34 0 50 -15 26 -24 -10 -4 -13 -2 -9 7 4 6 0 3 -9 -7 -17 -21 -13 -36 10
-36 8 0 14 -5 14 -11 0 -6 8 -8 18 -5 12 4 19 1 19 -8 0 -9 -5 -13 -10 -9 -5
3 -7 -3 -5 -13 2 -11 8 -19 13 -19 6 -1 20 -6 31 -13 12 -6 24 -9 27 -5 4 3
13 1 21 -6 8 -6 18 -11 22 -10 5 1 12 0 17 -1 4 -1 10 -3 15 -5 4 -1 18 -5 32
-9 14 -4 45 -9 70 -11 25 -2 45 -5 45 -6 0 -5 132 -7 145 -2 25 10 50 10 50 1
0 -4 7 -8 15 -8 8 0 15 -4 15 -10 0 -6 9 -6 23 -1 12 5 32 5 45 0 13 -5 22 -5
22 1 0 6 9 6 25 0 15 -6 26 -6 30 1 4 5 11 7 16 4 5 -4 9 0 9 7 0 8 3 9 8 3 4
-6 14 -10 22 -10 8 1 23 -3 33 -7 9 -5 17 -5 17 0 0 10 30 9 48 -2 7 -4 14 -1
18 7 4 12 14 13 46 5 37 -8 65 -7 107 3 19 5 37 -43 26 -67 -5 -11 -7 -22 -7
-26 1 -5 -2 -8 -7 -8 -6 0 -9 -12 -7 -27 1 -16 -1 -35 -5 -43 -4 -8 -9 -42
-10 -75 -2 -33 -8 -63 -14 -67 -7 -5 -6 -8 1 -8 13 0 18 -76 5 -84 -5 -4 -8
-15 -6 -26 2 -11 1 -20 -3 -21 -24 -3 -74 -8 -117 -10 -27 -1 -56 -7 -64 -13
-12 -9 -13 -8 -6 3 6 10 4 12 -6 5 -8 -4 -31 -9 -52 -10 -21 -1 -43 -6 -49
-12 -5 -5 -24 -6 -41 -3 -35 8 -105 6 -152 -4 -16 -4 -48 -7 -70 -8 -22 0 -43
-6 -47 -11 -5 -7 -8 -6 -8 3 0 11 -3 11 -17 0 -14 -12 -15 -12 -9 -1 7 11 4
12 -10 4 -22 -12 -24 -12 -65 -12 -19 0 -28 -4 -23 -11 4 -8 0 -8 -15 0 -11 7
-21 8 -21 4 0 -4 -10 -9 -23 -9 -34 -3 -51 -8 -59 -19 -5 -6 -8 -4 -8 5 0 11
-2 12 -8 3 -7 -11 -37 -19 -89 -25 -7 -1 -13 -5 -13 -10 0 -5 -4 -7 -9 -3 -5
3 -12 2 -15 -3 -2 -4 7 -9 22 -10 14 -1 29 4 33 10 7 10 11 10 21 0 9 -9 9
-12 -5 -12 -9 0 -17 -7 -17 -16 0 -8 4 -13 9 -9 5 3 12 1 15 -4 4 -5 2 -12 -3
-15 -5 -4 -13 -2 -16 4 -5 8 -14 6 -30 -4 -17 -12 -26 -13 -31 -4 -5 7 -3 8 6
3 8 -5 11 -4 6 3 -6 11 -36 5 -46 -8 -3 -4 -14 2 -25 12 -14 14 -15 18 -4 13
10 -4 19 0 22 9 6 15 -15 22 -45 17 -5 0 -8 5 -8 12 0 9 -2 9 -9 -1 -4 -8 -11
-13 -15 -13 -28 4 -56 -1 -51 -8 3 -6 -3 -10 -12 -11 -49 -1 -63 -5 -63 -17 0
-7 -3 -12 -7 -12 -28 5 -33 -2 -22 -23 9 -19 9 -21 -2 -11 -19 19 -37 16 -44
-7 -4 -12 -11 -17 -18 -13 -7 4 -6 -1 2 -10 11 -14 11 -17 0 -17 -11 0 -11 -2
1 -10 12 -8 12 -10 -3 -16 -9 -3 -17 -11 -17 -16 0 -6 6 -5 15 2 8 6 20 8 26
4 9 -5 7 -11 -6 -21 -18 -13 -18 -13 1 -13 15 0 16 -2 5 -9 -20 -13 -5 -30 22
-24 20 5 21 4 5 -8 -17 -13 -16 -15 7 -26 17 -8 27 -8 32 -1 4 7 1 8 -7 3 -9
-5 -11 -4 -6 4 11 17 25 4 21 -20 -4 -18 -2 -19 12 -7 14 11 16 11 8 -1 -6
-11 -3 -13 13 -9 12 4 24 3 26 0 8 -13 68 -5 77 9 6 10 9 10 9 2 0 -8 8 -5 20
7 11 11 26 17 34 14 8 -3 17 0 21 5 3 6 10 9 15 6 4 -3 19 -1 32 4 15 7 17 10
7 10 -9 1 -19 8 -23 16 -4 12 -2 13 13 6 10 -6 21 -7 25 -4 3 3 6 -3 6 -15 0
-12 5 -22 11 -22 5 0 7 -5 4 -10 -4 -6 5 -10 19 -10 14 0 26 -4 26 -8 0 -4 12
-8 28 -7 18 0 26 5 24 15 -3 12 -1 12 15 0 19 -16 41 -19 60 -7 6 4 15 3 18
-3 5 -8 11 -7 21 1 8 6 14 7 14 2 0 -4 22 -8 49 -8 27 0 48 2 46 6 -5 8 33 4
41 -4 10 -10 26 -9 20 1 -3 5 1 9 9 9 8 0 15 -3 15 -7 0 -8 86 -13 110 -5 12
4 17 12 13 22 -5 12 -3 14 8 7 8 -4 25 -10 39 -12 13 -2 27 -7 30 -11 6 -9 61
-8 76 2 6 3 14 3 18 -1 9 -8 216 -10 216 -1 0 3 7 6 15 6 8 0 15 -4 15 -9 0
-5 6 -6 13 -1 20 12 40 13 56 0 8 -7 12 -7 9 -2 -11 19 71 15 118 -6 l47 -20
36 23 c25 16 51 23 83 23 25 0 44 3 41 7 -2 5 1 8 6 8 6 0 11 -4 11 -10 0 -6
9 -6 26 0 16 7 23 7 19 0 -7 -11 23 -2 43 13 9 7 16 7 20 0 9 -13 81 -10 110
6 17 9 27 9 45 0 27 -15 147 -19 165 -6 8 6 12 5 12 -4 0 -11 2 -11 10 1 5 8
10 10 10 4 0 -14 32 -13 42 1 5 6 8 4 8 -5 0 -10 3 -11 8 -4 17 26 44 31 77
14 18 -9 48 -15 66 -14 19 2 58 5 87 8 28 2 52 1 52 -2 0 -13 205 -8 213 6 4
6 13 12 18 12 6 0 7 -5 3 -12 -4 -7 -3 -8 5 -4 6 4 17 3 24 -2 7 -6 15 -11 20
-11 4 -1 8 -1 10 -2 21 -6 37 -5 37 2 0 6 4 7 10 4 22 -13 56 -15 79 -3 19 11
25 10 35 -5 7 -9 16 -14 19 -10 4 3 7 2 7 -3 0 -5 26 -10 58 -12 31 -1 80 -4
109 -6 35 -2 52 0 50 8 -1 6 5 9 13 8 8 -2 23 -5 33 -7 9 -2 22 -7 29 -11 7
-5 8 -3 3 7 -8 12 -6 12 8 0 12 -10 17 -10 17 -2 0 8 8 10 20 6 27 -8 23 15
-5 32 -17 10 -17 12 -3 13 9 0 28 -4 43 -10 20 -8 24 -7 18 3 -4 6 -8 17 -8
22 -1 6 -6 9 -13 8 -7 -2 -12 7 -12 19 0 12 3 18 7 15 3 -4 13 -1 21 6 13 10
14 9 7 -3 -7 -12 -6 -13 7 -3 8 7 18 10 21 6 4 -3 7 -1 7 5 0 7 7 9 17 5 12
-5 15 -2 10 10 -3 9 -3 17 2 17 4 0 6 11 3 25 -2 14 -8 25 -12 25 -12 0 -17
41 -9 73 5 16 4 27 -2 27 -16 0 -40 28 -30 34 15 10 -10 78 -27 71 -7 -3 -20
2 -29 11 -9 8 -22 13 -30 10 -8 -3 -12 -2 -9 3 3 5 -15 9 -40 9 -24 1 -49 4
-55 7 -5 4 -37 9 -72 11 -34 3 -68 7 -74 9 -7 3 -13 -1 -13 -7 0 -7 -4 -7 -13
0 -12 10 -96 25 -137 25 -8 0 -21 5 -29 11 -11 8 -13 8 -8 -1 8 -12 2 -12 -98
2 -78 11 -245 11 -245 0 0 -6 -3 -7 -8 0 -8 11 -135 18 -128 7 2 -4 -18 -7
-45 -7 -27 0 -49 2 -49 5 0 3 -33 6 -73 7 -39 0 -81 2 -92 3 -11 0 -38 -2 -60
-5 -22 -4 -48 -7 -57 -6 -10 0 -18 -4 -18 -10 0 -5 -5 -9 -11 -9 -5 0 -7 4 -4
10 4 7 -3 7 -19 0 -14 -5 -26 -6 -26 -2 0 5 -15 7 -32 6 -18 -1 -33 -3 -33 -4
0 -1 -26 -3 -57 -5 -39 -2 -61 1 -68 10 -8 9 -8 15 0 20 7 4 7 12 0 25 -6 10
-7 21 -2 24 4 2 9 41 10 87 3 59 0 84 -10 90 -11 7 -11 9 0 9 8 0 10 5 6 12
-11 18 -12 48 -2 48 5 0 4 10 -3 21 -8 15 -8 19 0 15 6 -4 11 -1 11 8 0 8 -5
16 -12 18 -13 5 -19 48 -6 48 5 0 8 7 6 16 -4 20 54 41 110 38 23 -1 42 1 42
5 0 4 18 6 40 5 22 -1 40 3 40 8 0 5 5 6 10 3 6 -4 9 -1 8 7 -3 14 16 14 72 0
39 -10 63 -5 54 10 -4 6 2 6 14 -1 24 -13 62 -15 62 -3 0 4 9 8 20 8 11 0 20
-4 20 -8 0 -4 9 -8 20 -8 11 0 20 6 20 13 0 8 2 9 8 1 6 -9 97 -13 97 -4 0 2
29 6 110 13 61 6 96 23 89 44 -5 15 -4 15 4 3 6 -8 8 -18 6 -22 -7 -11 37 -10
55 1 7 5 11 13 7 19 -4 6 2 8 14 5 16 -4 19 -2 14 11 -3 9 -10 14 -14 11 -4
-3 -10 6 -12 20 -3 14 -1 25 4 25 5 0 6 6 2 13 -6 9 -4 9 7 -1 18 -17 44 -15
60 5 11 13 11 17 2 20 -7 3 -13 11 -13 19 0 9 -5 12 -10 9 -6 -4 -9 -1 -8 7 2
7 -3 12 -9 10 -7 -1 -13 2 -13 8 0 13 6 13 33 -1 16 -8 12 -1 -11 21 -18 17
-30 36 -27 41 4 5 1 9 -5 9 -7 0 -9 -8 -5 -21 6 -19 5 -20 -8 -8 -15 13 -14
15 2 30 18 15 18 16 -2 32 -18 14 -31 18 -62 17 -3 0 -18 6 -34 14 -40 21
-119 37 -193 39 -27 1 -48 4 -48 7 0 3 -16 6 -36 8 -26 1 -33 -1 -28 -10 6
-10 4 -10 -7 -2 -8 6 -40 11 -72 12 -32 1 -62 4 -67 7 -6 4 -10 2 -10 -3 0
-13 -48 -22 -52 -10 -2 5 -24 9 -48 10 -25 0 -51 5 -59 12 -12 8 -13 8 -7 -2
5 -9 -1 -12 -21 -12 -51 1 -160 -7 -170 -13 -15 -10 -31 7 -38 38 -10 48 -10
49 -18 63 -5 6 -6 16 -2 21 3 5 1 12 -4 16 -6 3 -8 12 -4 20 3 8 0 15 -7 15
-9 0 -9 4 1 17 10 11 10 14 2 9 -9 -5 -13 2 -13 23 0 17 5 31 10 31 6 0 10 7
10 15 0 8 11 25 24 38 22 22 31 24 80 20 47 -4 56 -2 56 12 0 9 5 13 10 10 6
-3 10 -1 10 5 0 7 6 8 18 2 9 -5 23 -7 30 -5 6 3 12 0 12 -6 0 -6 9 -11 20
-11 11 0 20 -3 20 -7 0 -10 166 -11 175 -2 9 9 45 -1 45 -13 0 -5 4 -7 9 -4 4
3 23 1 42 -4 23 -7 35 -6 40 1 4 8 8 7 11 -2 4 -11 10 -12 32 -1 23 10 31 10
44 0 13 -11 14 -11 7 2 -6 12 -5 13 6 3 16 -16 61 -17 76 -2 15 15 46 18 61 6
6 -5 12 -6 12 -1 0 5 4 3 9 -5 5 -8 16 -11 30 -6 12 3 19 11 16 16 -9 14 19
11 34 -3 11 -11 12 -10 6 2 -6 12 -5 12 5 3 14 -13 40 -6 57 16 7 9 13 12 13
7 0 -5 6 -3 14 3 10 8 16 9 21 1 4 -7 13 -7 27 1 15 8 19 8 14 0 -13 -20 13
-12 35 12 12 12 18 15 13 7 -6 -12 -3 -11 16 2 14 10 48 30 77 44 46 25 50 29
35 41 -16 12 -15 13 6 19 27 8 29 20 2 20 -11 0 -20 -5 -20 -10 0 -5 -3 -7 -6
-3 -10 10 17 77 31 77 25 0 37 36 19 54 -15 16 -22 18 -58 20 -11 1 -21 7 -24
15 -3 8 0 11 6 7 14 -9 43 4 36 16 -4 6 -10 5 -15 -3 -6 -10 -9 -10 -9 -2 0 9
-13 11 -42 9 l-43 -5 27 17 c25 15 36 57 12 48 -27 -10 -33 11 -9 36 14 15 25
32 25 37 0 6 11 21 24 34 14 14 22 28 18 31 -3 4 -1 10 5 14 7 4 15 23 18 41
3 19 10 42 16 52 7 13 6 19 -1 19 -6 0 -8 5 -4 12 14 22 11 129 -3 144 -17 16
-17 28 0 18 9 -6 9 -5 0 8 -7 8 -11 17 -9 19 17 16 24 151 9 156 -10 4 -9 65
3 128 4 22 8 57 8 78 0 20 3 37 6 37 3 0 6 24 7 54 0 29 6 62 11 72 5 11 9 31
7 47 -2 15 0 27 5 27 4 0 8 12 8 28 1 32 21 142 28 154 3 4 -1 8 -8 8 -8 0 -9
3 -3 8 13 9 16 82 3 82 -6 0 -7 11 -3 28 4 15 8 33 8 40 0 6 3 12 6 12 3 0 6
18 6 40 0 22 -2 40 -5 40 -3 0 -6 15 -7 33 -3 67 -15 113 -34 129 -10 9 -19
25 -19 37 0 11 -5 23 -11 26 -6 4 -8 13 -5 21 3 8 -10 22 -34 35 -22 13 -40
26 -40 31 0 4 -7 5 -15 2 -8 -4 -15 -2 -15 4 0 5 -16 9 -35 8 -19 -1 -35 2
-35 7 0 5 -7 1 -16 -8 -10 -9 -21 -12 -28 -7 -6 4 -18 8 -26 7 -8 0 -18 4 -22
10 -5 6 -8 5 -8 -3 0 -9 -5 -10 -19 -2 -14 7 -21 6 -24 -3 -4 -9 -6 -9 -6 1
-1 6 -8 12 -16 12 -8 0 -15 4 -15 9 0 11 -19 9 -39 -3 -10 -6 -12 -5 -7 2 10
16 -16 15 -33 0 -11 -10 -13 -10 -7 0 15 27 -6 10 -25 -20z m57 -14 c-20 -14
-21 -25 -1 -18 8 4 15 1 15 -4 0 -6 -9 -9 -20 -7 -11 2 -20 -1 -20 -6 0 -6 -5
-7 -10 -4 -6 4 -16 2 -23 -4 -7 -5 -22 -9 -32 -7 -11 2 -26 -4 -33 -13 -11
-14 -12 -13 -4 4 5 11 7 27 5 35 -3 9 1 6 10 -5 16 -19 16 -19 10 5 -6 24 -6
24 14 7 11 -9 23 -14 27 -10 4 5 12 9 17 9 20 3 21 4 11 17 -8 9 -3 12 20 12
25 1 27 -1 14 -11z m174 -24 c0 -5 -8 -10 -17 -10 -15 0 -16 2 -3 10 19 12 20
12 20 0z m183 -45 c-3 -9 -8 -14 -10 -11 -3 3 -2 9 2 15 9 16 15 13 8 -4z m32
-15 c3 -6 -1 -7 -9 -4 -18 7 -21 14 -7 14 6 0 13 -4 16 -10z m-435 -133 c0 -2
-10 -12 -22 -23 l-23 -19 19 23 c18 21 26 27 26 19z m35 -7 c3 -6 -1 -7 -9 -4
-18 7 -21 14 -7 14 6 0 13 -4 16 -10z m12 -87 c0 -9 -4 -10 -14 -2 -7 6 -13
12 -13 14 0 1 6 2 13 2 8 0 14 -6 14 -14z m-2437 -3 c0 -5 -5 -10 -11 -10 -5
0 -7 5 -4 10 3 6 8 10 11 10 2 0 4 -4 4 -10z m2852 -12 c-7 -7 -12 -8 -12 -2
0 14 12 26 19 19 2 -3 -1 -11 -7 -17z m-436 -23 c1 -8 -4 -11 -11 -8 -8 2 -11
11 -8 19 6 16 16 11 19 -11z m-2416 11 c0 -3 -4 -8 -10 -11 -5 -3 -10 -1 -10
4 0 6 5 11 10 11 6 0 10 -2 10 -4z m2485 -14 c12 -9 16 -42 5 -42 -4 0 -11 -7
-14 -16 -7 -19 -35 -146 -41 -189 -3 -16 -8 -43 -11 -60 -3 -16 -7 -48 -8 -70
-6 -92 -19 -100 -158 -100 -54 0 -98 -2 -98 -5 0 -3 -33 -5 -73 -5 -39 0 -74
-3 -77 -7 -3 -4 -47 -8 -98 -9 -51 -1 -92 -4 -92 -8 0 -3 -33 -7 -73 -8 -39
-2 -94 -5 -120 -7 -45 -4 -49 -3 -44 15 3 11 0 19 -6 19 -8 0 -8 3 -2 8 13 9
13 172 0 172 -5 0 -3 5 5 10 8 5 10 10 5 10 -6 0 -12 15 -14 33 -1 17 -4 46
-7 62 -9 66 -8 96 4 94 19 -3 33 2 27 11 -9 15 84 16 95 1 8 -10 74 -9 82 2 4
7 12 6 22 -2 12 -10 16 -10 16 -2 0 7 5 9 12 5 15 -9 78 -11 78 -2 0 4 10 8
23 10 12 2 21 9 20 15 -2 9 4 10 25 2 38 -15 82 -22 82 -12 0 4 17 8 37 9 81
1 133 11 146 27 6 9 24 18 39 20 15 1 30 6 33 9 4 3 19 2 35 -2 20 -6 30 -5
34 3 3 7 5 6 5 -3 1 -15 51 -22 51 -7 0 5 5 5 10 2 6 -3 10 1 10 9 0 17 18 21
35 8z m-2493 -110 c-7 -2 -9 -9 -6 -14 4 -7 2 -8 -4 -4 -19 12 -15 36 5 29 11
-4 13 -8 5 -11z m1086 -26 c52 -1 96 2 98 6 9 14 22 8 27 -12 3 -11 2 -20 -2
-20 -4 0 -6 -51 -6 -112 0 -84 4 -112 13 -111 6 2 12 -2 12 -8 0 -6 -9 -8 -20
-4 -26 8 -23 -17 4 -28 10 -4 16 -13 12 -22 -3 -8 -1 -17 3 -20 11 -6 2 -45
-11 -45 -5 0 -7 -4 -3 -9 3 -5 -5 -17 -17 -25 -17 -12 -24 -13 -30 -3 -6 9 -8
9 -8 -2 0 -9 -8 -11 -24 -7 -12 3 -26 3 -30 -1 -4 -4 -44 -9 -89 -10 -45 -2
-94 -4 -109 -4 -16 -1 -28 -4 -28 -8 0 -7 -13 -9 -122 -13 -38 -2 -68 -7 -68
-11 0 -5 -4 -5 -10 -2 -5 3 -10 0 -11 -7 0 -8 -2 -9 -5 -2 -3 8 -19 7 -56 -2
-28 -8 -55 -11 -61 -7 -6 3 -7 1 -3 -5 4 -7 -2 -10 -16 -10 -31 2 -47 15 -43
36 1 9 -3 20 -9 24 -8 5 -7 8 2 8 8 0 10 5 5 13 -4 6 -9 28 -10 47 -4 65 -8
85 -17 91 -5 4 -10 22 -11 40 -2 19 -3 35 -4 37 0 1 -2 5 -2 10 -1 4 -6 18
-11 32 -5 14 -11 32 -13 40 -2 8 -4 20 -5 25 -6 25 3 31 43 30 23 0 57 5 76
11 19 6 51 9 71 7 23 -3 42 0 51 8 18 17 39 22 39 10 0 -7 20 -7 88 1 6 1 12
5 12 9 0 5 20 6 45 3 26 -3 45 -1 45 5 0 5 9 7 20 4 12 -3 20 0 20 6 0 7 5 9
10 6 6 -3 10 -1 10 5 0 6 10 8 28 4 15 -4 69 -8 120 -8z m444 -328 c-8 -8 -9
-4 -5 13 4 13 8 18 11 10 2 -7 -1 -18 -6 -23z m-1385 -225 c-3 -10 -5 -2 -5
17 0 19 2 27 5 18 2 -10 2 -26 0 -35z m2628 -143 c-3 -5 -2 -10 3 -10 6 0 9
-11 8 -25 0 -14 -4 -25 -7 -25 -8 0 -17 58 -11 65 9 9 13 5 7 -5z m-395 -61
c0 -5 5 -8 11 -6 6 1 13 -10 16 -25 2 -16 -1 -28 -6 -28 -5 0 -8 -9 -6 -20 2
-11 -2 -26 -10 -34 -8 -7 -11 -16 -8 -20 4 -3 2 -6 -3 -6 -16 0 -9 -121 7
-131 10 -6 6 -9 -14 -9 -16 0 -26 -4 -22 -10 3 -5 2 -10 -2 -10 -5 0 -22 -12
-38 -27 -16 -16 -34 -27 -39 -25 -4 2 -6 -4 -3 -12 3 -8 1 -16 -6 -19 -9 -3
-9 -10 0 -29 9 -21 8 -30 -5 -49 -9 -13 -20 -27 -25 -30 -5 -4 -7 -11 -3 -17
3 -6 2 -13 -4 -17 -5 -3 -10 -14 -10 -24 0 -17 -9 -18 -107 -16 -60 2 -108 4
-108 5 0 6 -117 4 -121 -2 -3 -5 -10 -6 -15 -3 -5 4 -9 2 -9 -4 0 -5 -9 -9
-20 -8 -11 1 -20 5 -20 10 0 5 -9 7 -20 4 -11 -3 -22 -2 -25 3 -6 9 -56 7 -72
-3 -7 -5 -13 -4 -13 0 0 5 -20 8 -45 7 -32 -1 -45 3 -45 12 0 8 -3 14 -7 14
-5 0 -6 52 -3 115 3 78 2 116 -6 119 -6 3 -9 22 -7 48 3 23 5 79 6 123 1 57 6
84 17 93 8 8 9 11 3 7 -7 -3 -13 -2 -13 4 0 14 23 19 43 9 9 -5 22 -6 27 -3 6
3 10 1 10 -5 0 -7 5 -8 13 -3 6 4 24 8 38 8 14 0 34 6 43 14 11 10 20 11 24 5
9 -14 112 -14 112 0 0 6 5 4 10 -4 7 -11 10 -11 10 -2 0 9 5 10 17 3 10 -5 26
-5 41 0 13 5 29 6 35 2 15 -9 167 -10 194 -1 12 4 24 4 27 0 4 -6 22 -7 114
-3 13 1 20 5 17 11 -3 6 1 7 9 4 9 -3 16 -10 16 -15z m-1626 -37 c3 -5 -1 -9
-9 -9 -8 0 -12 4 -9 9 3 4 7 8 9 8 2 0 6 -4 9 -8z m-140 -13 c-6 -11 114 -14
179 -4 20 3 37 1 37 -4 0 -8 172 -7 233 2 15 2 27 0 27 -5 0 -5 9 -4 19 2 24
12 31 -8 20 -57 -5 -25 -3 -33 7 -33 17 0 14 -41 -7 -90 -9 -19 -16 -56 -18
-82 -1 -25 -4 -56 -6 -67 -2 -11 1 -23 6 -26 5 -4 7 -11 4 -16 -4 -5 1 -12 9
-15 14 -5 13 -10 -3 -42 -10 -21 -17 -52 -15 -70 3 -36 -19 -52 -63 -47 -13 1
-23 -1 -23 -4 0 -4 -12 -7 -27 -8 -34 -2 -108 -11 -108 -13 0 -1 -12 -3 -27
-4 -14 0 -29 -4 -33 -8 -4 -4 -13 -4 -21 -1 -8 3 -14 0 -14 -7 0 -10 -3 -10
-15 0 -11 9 -15 9 -15 1 0 -7 -4 -10 -9 -6 -5 3 -8 27 -6 53 1 26 -1 55 -6 64
-6 11 -5 19 2 23 7 5 6 12 -3 23 -8 10 -14 33 -13 54 0 20 -4 34 -9 30 -5 -3
-7 2 -3 10 3 9 3 19 -1 23 -4 4 -7 10 -8 13 0 4 -4 14 -7 22 -4 8 -8 24 -10
35 -6 30 -19 59 -31 67 -7 5 -7 8 2 8 10 0 8 8 -6 28 -10 15 -17 33 -15 40 3
6 -2 12 -10 12 -9 0 -14 10 -14 25 0 14 -8 32 -18 39 -13 9 -15 15 -6 20 6 4
9 11 7 15 -3 4 1 8 9 8 8 0 12 -4 9 -8z m603 -98 c0 -11 -5 -18 -9 -15 -4 3
-5 11 -1 19 7 21 12 19 10 -4z m1514 -354 c-10 -9 -11 -8 -5 6 3 10 9 15 12
12 3 -3 0 -11 -7 -18z m34 -177 c-6 -9 -9 -9 -16 1 -10 17 0 34 13 21 6 -6 7
-16 3 -22z m60 -10 c-3 -5 -1 -10 6 -10 7 0 10 -3 6 -6 -9 -9 -28 6 -22 17 4
5 8 9 11 9 3 0 2 -4 -1 -10z m-28 -18 c9 -6 8 -12 -5 -22 -23 -19 -42 -23 -42
-10 0 17 5 25 13 23 4 -2 7 2 7 7 0 12 10 13 27 2z m13 -72 c0 -5 -7 -10 -15
-10 -8 0 -15 5 -15 10 0 6 7 10 15 10 8 0 15 -4 15 -10z m-40 -62 c0 -6 -6 -5
-15 2 -8 7 -15 14 -15 16 0 2 7 1 15 -2 8 -4 15 -11 15 -16z m-65 -26 c-3 -3
-11 0 -18 7 -9 10 -8 11 6 5 10 -3 15 -9 12 -12z m-2242 -225 c4 3 7 1 7 -5 0
-17 -16 -15 -31 6 -12 15 -12 16 2 5 9 -7 19 -10 22 -6z m1064 -19 c-1 -10 -4
-18 -8 -18 -4 0 -9 8 -11 18 -3 11 0 19 8 19 7 0 12 -9 11 -19z m-257 -55 c0
-30 -9 -27 -15 6 -2 11 0 21 6 21 5 0 9 -12 9 -27z m732 -188 c-8 -16 -9 -16
-15 -1 -4 10 -3 15 3 11 6 -3 10 -1 10 6 0 7 3 10 6 6 3 -3 2 -13 -4 -22z
m514 -30 c-9 -9 -16 -21 -16 -26 0 -5 -5 -9 -11 -9 -8 0 -8 5 1 15 10 12 10
15 -4 15 -9 0 -16 -5 -16 -11 0 -5 -5 -7 -12 -3 -9 6 -9 9 0 12 7 2 10 7 8 11
-3 4 11 8 31 9 32 3 34 1 19 -13z m19 -75 c-3 -5 3 -10 12 -12 15 -3 14 -5 -5
-10 -12 -3 -20 -2 -17 2 3 5 1 11 -5 15 -6 4 -8 11 -4 16 3 5 10 7 15 3 5 -3
7 -9 4 -14z m-2325 -10 c0 -5 -5 -10 -11 -10 -5 0 -7 5 -4 10 3 6 8 10 11 10
2 0 4 -4 4 -10z m-3 -26 c-3 -3 -12 -4 -19 -1 -8 3 -5 6 6 6 11 1 17 -2 13 -5z
m2367 -37 c-13 -7 -19 -7 -22 1 -2 7 -9 10 -15 6 -7 -3 -3 2 7 10 15 12 23 13
33 4 12 -10 12 -13 -3 -21z m-90 -33 c3 -8 2 -12 -4 -9 -6 3 -10 10 -10 16 0
14 7 11 14 -7z m-27 0 c-3 -3 -12 -4 -19 -1 -8 3 -5 6 6 6 11 1 17 -2 13 -5z
m27 -45 c-3 -5 -10 -7 -15 -3 -5 3 -7 10 -3 15 3 5 10 7 15 3 5 -3 7 -10 3
-15z m42 -36 c-6 -6 -36 9 -36 18 0 5 9 4 20 -3 10 -7 18 -14 16 -15z m-1263
-164 c-8 -8 -13 -7 -18 2 -5 8 -4 10 3 5 7 -4 12 -2 12 5 0 7 3 9 7 6 4 -4 2
-12 -4 -18z m-943 -589 c0 -5 -8 -10 -17 -10 -15 0 -16 2 -3 10 19 12 20 12
20 0z m-273 -56 c-3 -3 -12 -4 -19 -1 -8 3 -5 6 6 6 11 1 17 -2 13 -5z m-167
-64 c-9 -6 -9 -9 1 -12 9 -3 8 -6 -5 -11 -10 -4 -15 -3 -11 3 3 6 2 10 -4 10
-6 0 -8 6 -5 14 3 8 12 12 21 9 11 -4 11 -8 3 -13z m267 -5 c0 -8 -6 -16 -14
-19 -11 -4 -11 -1 -3 14 13 24 17 25 17 5z m71 -56 c-7 -5 -21 -6 -32 -3 -11
4 -16 2 -12 -4 3 -6 1 -14 -6 -18 -7 -4 -10 -4 -6 1 4 4 3 14 -3 21 -8 10 -4
12 21 9 17 -2 28 0 25 5 -3 6 1 7 10 3 13 -5 14 -7 3 -14z m-313 -39 c-3 -5
-12 -10 -18 -10 -7 0 -6 4 3 10 19 12 23 12 15 0z m405 -60 c0 -5 -2 -10 -4
-10 -3 0 -8 5 -11 10 -3 6 -1 10 4 10 6 0 11 -4 11 -10z"/>
<path d="M3280 4710 c0 -5 5 -10 11 -10 5 0 7 5 4 10 -3 6 -8 10 -11 10 -2 0
-4 -4 -4 -10z"/>
<path d="M645 4471 c-3 -5 -2 -12 3 -15 5 -3 9 1 9 9 0 17 -3 19 -12 6z"/>
<path d="M615 4440 c-3 -5 1 -10 9 -10 9 0 16 5 16 10 0 6 -4 10 -9 10 -6 0
-13 -4 -16 -10z"/>
<path d="M559 3883 c-6 -36 -4 -50 7 -50 10 0 11 4 3 14 -9 9 -8 17 1 28 9 10
9 15 1 15 -6 0 -12 -3 -12 -7z"/>
<path d="M2550 2457 c0 -9 0 -20 1 -23 0 -4 -5 -11 -13 -15 -10 -7 -9 -9 4 -9
20 0 34 38 19 53 -8 8 -11 6 -11 -6z"/>
<path d="M2586 2452 c-3 -5 1 -9 9 -9 8 0 12 4 9 9 -3 4 -7 8 -9 8 -2 0 -6 -4
-9 -8z"/>
<path d="M3463 2360 c-1 -11 2 -22 8 -25 5 -4 8 3 6 14 -4 28 -12 34 -14 11z"/>
<path d="M1839 2279 c-5 -3 -9 -10 -8 -15 4 -21 -2 -54 -8 -53 -20 3 -66 -3
-55 -8 17 -7 15 -28 -3 -43 -12 -10 -19 -10 -27 -2 -9 9 -6 12 13 13 22 0 22
1 4 8 -11 5 -22 4 -23 0 -2 -5 -9 -6 -15 -2 -9 5 -9 3 0 -8 6 -8 13 -18 15
-24 1 -5 6 -9 9 -8 3 1 6 -4 6 -12 0 -8 -5 -11 -10 -8 -7 4 -8 -1 -3 -12 5
-14 4 -16 -7 -7 -10 9 -14 8 -14 -3 0 -22 28 -27 43 -8 10 13 14 14 12 3 -4
-20 -21 -39 -31 -33 -12 7 13 -38 30 -55 7 -8 11 -17 8 -22 -3 -5 0 -10 5 -12
6 -2 12 -13 13 -26 0 -12 5 -22 10 -22 5 0 7 -5 5 -12 -4 -11 13 -36 52 -76 8
-9 16 -24 16 -34 1 -10 3 -21 4 -25 1 -5 2 -11 1 -15 0 -5 3 -8 9 -8 5 0 10
-6 10 -14 0 -8 6 -16 14 -19 8 -3 25 -27 39 -54 15 -30 30 -47 40 -47 10 1 18
-3 18 -10 5 -41 8 -54 21 -77 17 -33 43 -59 58 -59 13 0 79 -70 80 -83 0 -5 5
-5 10 -2 6 3 10 1 10 -4 0 -6 9 -11 20 -11 11 0 20 5 20 11 0 5 -4 8 -8 5 -5
-3 -9 1 -9 9 0 8 3 15 6 15 8 0 36 -43 33 -52 -1 -3 5 -11 13 -18 12 -10 13
-8 9 12 -3 12 -6 29 -6 36 -1 6 -5 12 -9 12 -3 0 -9 9 -12 20 -4 17 -2 18 14
9 18 -9 23 -5 20 14 -2 15 15 6 43 -23 16 -17 34 -30 40 -30 13 1 42 22 44 33
1 4 2 8 3 10 8 27 7 52 -3 60 -9 6 -8 7 4 3 10 -3 28 -1 40 4 13 5 18 9 12 9
-12 1 -24 30 -29 64 -2 16 0 16 19 4 24 -16 43 -4 46 29 3 26 -11 84 -20 84
-4 0 -15 18 -25 40 -10 21 -28 47 -41 57 -13 10 -24 25 -24 34 0 9 -7 22 -15
29 -8 7 -15 16 -15 21 0 11 -40 52 -40 42 0 -5 -8 7 -17 25 -9 19 -32 44 -50
57 -19 12 -34 26 -34 29 2 17 -1 23 -24 49 -14 15 -24 27 -21 27 2 0 -8 13
-22 28 -15 16 -40 45 -57 65 -16 20 -38 37 -48 37 -10 0 -15 4 -12 10 3 6 -1
7 -9 4 -9 -3 -16 -2 -16 3 0 10 -63 43 -81 43 -6 0 -8 -4 -4 -9 3 -5 1 -13 -5
-16 -6 -4 -9 -1 -8 6 3 13 -54 20 -73 8z m95 -38 c4 -5 -3 -7 -14 -4 -23 6
-26 13 -6 13 8 0 17 -4 20 -9z m36 -1 c0 -5 -2 -10 -4 -10 -3 0 -8 5 -11 10
-3 6 -1 10 4 10 6 0 11 -4 11 -10z m419 -544 c-3 -3 -11 5 -18 17 -13 21 -12
21 5 5 10 -10 16 -20 13 -22z m-164 -116 c3 -5 1 -10 -4 -10 -6 0 -11 5 -11
10 0 6 2 10 4 10 3 0 8 -4 11 -10z m105 -52 c0 -18 2 -20 10 -8 5 8 11 12 14
9 3 -2 1 -11 -4 -19 -7 -11 -11 -11 -24 -1 -18 15 -21 41 -6 41 6 0 10 -10 10
-22z"/>
<path d="M1810 2251 c0 -5 -12 -7 -27 -5 -15 3 -25 3 -22 -1 14 -13 48 -13 60
1 8 10 8 14 0 14 -6 0 -11 -4 -11 -9z"/>
<path d="M925 2230 c3 -5 3 -11 -2 -11 -48 -7 -63 -6 -63 3 0 5 -16 -9 -35
-33 -20 -23 -34 -48 -31 -56 3 -8 2 -12 -3 -9 -4 3 -16 -3 -26 -14 -10 -11
-15 -20 -11 -20 4 0 -4 -10 -17 -22 -31 -29 -47 -60 -47 -91 0 -22 -48 -77
-68 -77 -11 0 -63 -95 -56 -103 3 -3 -4 -8 -15 -12 -12 -3 -24 -17 -27 -31 -3
-13 -10 -22 -15 -19 -4 3 -6 -4 -4 -16 2 -12 2 -19 -1 -16 -9 8 -41 -27 -37
-39 4 -12 -12 -27 -33 -30 -20 -3 -54 -38 -54 -55 0 -9 -6 -17 -12 -16 -33 1
-49 -4 -43 -13 3 -5 2 -10 -3 -10 -5 0 -14 -12 -20 -26 -7 -14 -17 -22 -22
-19 -6 3 -10 1 -10 -5 0 -7 -7 -9 -15 -6 -9 3 -18 -1 -21 -9 -4 -8 -10 -12
-15 -9 -5 3 -9 1 -9 -5 0 -5 -8 -18 -18 -27 -16 -17 -16 -18 2 -11 14 6 17 4
12 -9 -4 -11 2 -26 15 -41 13 -12 17 -23 11 -23 -6 0 -9 -9 -7 -20 2 -12 0
-18 -6 -14 -12 7 -41 -15 -33 -27 3 -5 0 -9 -6 -9 -6 0 0 -11 14 -25 14 -14
35 -25 48 -25 13 0 30 -5 38 -11 13 -9 13 -10 -2 -6 -13 5 -28 -10 -28 -28 0
-1 17 0 39 2 29 3 40 1 45 -12 3 -9 2 -13 -4 -10 -5 3 -8 -4 -7 -15 1 -20 22
-34 38 -24 5 3 9 0 9 -6 0 -6 5 -8 13 -3 6 4 21 8 32 9 11 1 29 5 40 7 11 3
27 7 35 9 8 1 20 10 27 18 7 8 13 11 13 7 0 -4 6 -2 14 5 8 7 12 16 9 21 -4 6
20 11 40 8 4 0 7 4 7 10 0 5 4 8 9 5 12 -8 114 91 107 103 -3 5 6 16 20 26 34
22 64 53 64 66 0 5 5 7 11 3 7 -4 10 -1 7 7 -2 7 4 22 14 33 19 20 54 89 60
116 2 8 12 23 22 33 10 9 16 17 11 17 -4 0 -3 6 3 13 6 6 11 15 11 20 2 22 15
64 24 75 5 6 6 12 1 12 -5 0 -1 5 9 11 9 6 15 14 12 20 -4 5 -1 9 4 9 6 0 11
7 11 15 0 9 6 18 14 21 8 3 12 12 9 20 -3 8 1 14 8 14 7 0 10 3 7 6 -4 3 0 21
8 40 8 19 11 34 8 34 -4 0 -1 6 5 13 6 8 12 30 13 49 2 20 6 34 11 31 4 -2 7
1 7 6 0 6 -6 11 -12 11 -8 0 -6 5 4 11 11 6 15 16 11 26 -5 12 -3 14 7 8 9 -5
11 -4 6 4 -4 6 -12 9 -17 6 -5 -4 -9 -1 -9 5 0 6 -4 8 -10 5 -5 -3 -10 1 -10
11 0 13 3 14 15 4 29 -24 37 1 10 30 -15 16 -27 31 -26 34 2 11 -13 8 -17 -3
-2 -6 1 -11 7 -11 6 0 11 -4 11 -10 0 -21 -19 -9 -32 20 -7 17 -17 30 -21 30
-5 0 -6 4 -3 8 2 4 -6 8 -18 8 -17 0 -22 -5 -18 -18 2 -10 9 -15 16 -11 6 3 7
2 3 -2 -23 -26 -43 -9 -38 33 1 6 -5 12 -14 12 -9 0 -13 -4 -10 -10z m-70 -49
c-9 -8 -36 -10 -30 -2 2 4 11 8 20 8 8 0 13 -3 10 -6z m165 -26 c0 -5 -5 -3
-10 5 -8 12 -10 12 -10 1 0 -8 -2 -12 -5 -9 -3 3 -2 13 1 22 5 14 9 15 15 4 5
-7 9 -17 9 -23z m65 -16 c11 -17 -1 -21 -15 -4 -8 9 -8 15 -2 15 6 0 14 -5 17
-11z m-38 -29 c1 -16 -1 -17 -12 -7 -11 10 -8 19 10 27 1 0 1 -9 2 -20z m3
-40 c0 -5 -5 -10 -11 -10 -5 0 -7 5 -4 10 3 6 8 10 11 10 2 0 4 -4 4 -10z
m-361 -703 c-2 -1 -13 -9 -24 -17 -19 -14 -19 -14 -6 3 7 9 18 17 24 17 6 0 8
-1 6 -3z m-159 -141 c0 -2 -7 -6 -15 -10 -8 -3 -15 -1 -15 4 0 6 7 10 15 10 8
0 15 -2 15 -4z m-100 -26 c0 -5 -5 -10 -11 -10 -5 0 -7 5 -4 10 3 6 8 10 11
10 2 0 4 -4 4 -10z"/>
<path d="M1726 2232 c-3 -5 1 -9 9 -9 8 0 15 4 15 9 0 4 -4 8 -9 8 -6 0 -12
-4 -15 -8z"/>
<path d="M1290 2189 c0 -5 -4 -8 -9 -4 -5 3 -13 -4 -16 -16 -6 -17 -9 -19 -16
-8 -6 10 -9 11 -9 2 0 -7 -6 -13 -14 -13 -7 0 -19 -7 -26 -15 -7 -8 -16 -13
-20 -10 -4 3 -14 -3 -21 -12 -10 -12 -10 -14 -1 -9 8 5 12 -1 12 -19 0 -14 -4
-24 -9 -21 -5 3 -11 -3 -14 -14 -3 -11 -1 -20 3 -20 4 0 6 -9 3 -20 -3 -11 2
-39 12 -62 9 -24 17 -45 18 -48 2 -22 10 -39 16 -36 6 4 8 -10 14 -96 1 -18 6
-36 11 -39 5 -4 8 -35 8 -70 -1 -82 5 -109 22 -109 18 0 24 -26 16 -65 -8 -35
-2 -58 11 -49 5 3 8 -8 7 -25 -1 -17 -5 -31 -8 -31 -4 0 -7 -7 -7 -15 0 -8 5
-11 10 -8 6 4 8 0 4 -10 -3 -9 -2 -19 3 -22 5 -3 7 -12 3 -20 -3 -8 0 -15 7
-15 6 0 8 5 4 12 -5 8 0 9 14 6 12 -4 22 -2 22 4 0 5 6 6 13 2 7 -5 6 0 -3 11
-14 17 -14 18 5 8 15 -9 22 -8 30 4 8 11 11 5 10 -29 0 -54 11 -68 46 -56 32
11 53 48 44 77 -3 11 -3 21 2 22 4 0 18 2 30 3 14 2 19 -2 16 -11 -3 -7 -9
-13 -15 -13 -5 0 -6 -4 -3 -10 3 -5 1 -10 -4 -10 -6 0 -11 -15 -10 -32 0 -33
0 -33 11 -8 6 14 12 27 13 30 9 27 19 39 26 34 5 -3 7 -10 4 -15 -4 -5 -3 -9
2 -10 4 0 16 -2 26 -4 11 -2 17 -1 14 2 -3 2 2 13 11 24 9 10 17 31 18 46 2
43 3 45 16 37 7 -4 8 -3 4 5 -9 15 -25 5 -36 -23 -4 -12 -3 -27 3 -36 6 -8 7
-12 3 -8 -5 4 -16 2 -24 -5 -13 -10 -14 -9 -8 1 5 9 1 15 -13 19 -12 3 -21 10
-21 15 0 5 4 7 9 4 5 -3 11 1 15 9 3 8 12 15 21 15 18 0 20 40 3 60 -7 7 0 4
15 -8 29 -21 53 -21 55 1 1 7 4 26 7 42 11 54 12 100 4 123 -8 22 -12 41 -25
132 -3 25 -10 49 -15 55 -5 5 -9 19 -9 32 0 13 -4 23 -10 23 -5 0 -10 7 -10
16 0 24 -90 193 -108 204 -9 5 -13 10 -9 10 8 0 -38 46 -80 80 -21 17 -58 26
-49 12 3 -5 -8 -9 -23 -8 -16 1 -27 4 -24 9 2 4 -3 7 -11 7 -9 0 -16 -5 -16
-11z m-3 -34 c0 -8 -4 -12 -9 -9 -4 3 -8 9 -8 15 0 5 4 9 8 9 5 0 9 -7 9 -15z
m93 9 c0 -8 -19 -13 -24 -6 -3 5 1 9 9 9 8 0 15 -2 15 -3z m-166 -48 c-6 -15
-28 -16 -41 -1 -4 4 -3 6 2 2 6 -3 17 -2 25 4 20 12 20 11 14 -5z m-36 -91
c-3 -3 -9 2 -12 12 -6 14 -5 15 5 6 7 -7 10 -15 7 -18z m237 -615 c-2 -18 1
-30 7 -30 6 0 9 -3 6 -6 -4 -3 -16 0 -28 6 -16 9 -19 14 -10 20 6 4 11 10 11
14 -3 18 0 26 8 26 5 0 8 -13 6 -30z m-83 -30 c-6 -41 -21 -38 -17 3 2 17 4
37 4 42 1 6 5 4 9 -3 5 -7 7 -26 4 -42z m125 -28 c10 -6 12 -35 4 -73 -3 -14
-31 -4 -31 12 0 10 -4 21 -10 24 -6 4 -5 13 3 25 13 22 16 23 34 12z"/>
<path d="M1695 2150 c-3 -5 -1 -10 4 -10 6 0 11 5 11 10 0 6 -2 10 -4 10 -3 0
-8 -4 -11 -10z"/>
<path d="M3110 1499 c0 -5 5 -7 10 -4 6 3 10 8 10 11 0 2 -4 4 -10 4 -5 0 -10
-5 -10 -11z"/>
<path d="M3510 1450 c0 -5 5 -10 10 -10 6 0 10 5 10 10 0 6 -4 10 -10 10 -5 0
-10 -4 -10 -10z"/>
<path d="M6656 1423 c-6 -14 -5 -15 5 -6 7 7 10 15 7 18 -3 3 -9 -2 -12 -12z"/>
<path d="M170 1392 c0 -16 28 -34 34 -23 4 6 -3 15 -14 21 -11 6 -20 7 -20 2z"/>
<path d="M1584 1389 c-3 -6 -2 -15 3 -20 5 -5 9 -1 10 11 2 22 -2 25 -13 9z"/>
<path d="M2295 1340 c-3 -5 -1 -10 4 -10 6 0 11 5 11 10 0 6 -2 10 -4 10 -3 0
-8 -4 -11 -10z"/>
<path d="M6630 1225 c-11 -13 -10 -14 4 -9 9 3 16 10 16 15 0 13 -6 11 -20 -6z"/>
<path d="M6665 1220 c4 -6 11 -8 16 -5 14 9 11 15 -7 15 -8 0 -12 -5 -9 -10z"/>
<path d="M4607 1163 c3 -7 9 -10 14 -7 14 8 11 21 -5 21 -8 0 -12 -6 -9 -14z"/>
</g>
</svg>
